<svg xmlns="http://www.w3.org/2000/svg" viewBox="0 0 960 440" font-family="Space Grotesk, system-ui, sans-serif">
  <defs>
    <marker id="gpArr" markerWidth="10" markerHeight="7" refX="10" refY="3.5" orient="auto">
      <polygon points="0 0, 10 3.5, 0 7" fill="#C87533"/>
    </marker>
  </defs>

  <rect width="960" height="440" rx="12" fill="#0F0E0B"/>
  <text x="480" y="35" text-anchor="middle" font-size="16" font-weight="700" fill="#F0EDE8">Behavior-Based Attribute Inference</text>

  <!-- Training data -->
  <rect x="30" y="75" width="200" height="160" rx="8" fill="#1A1714" stroke="#8FAF8B" stroke-width="1.5"/>
  <text x="130" y="100" text-anchor="middle" font-size="11" font-weight="600" fill="#8FAF8B">Labelled Training Set</text>
  <text x="130" y="116" text-anchor="middle" font-size="9" fill="#9C9189">single-adult-profile accounts</text>

  <rect x="45" y="130" width="170" height="26" rx="4" fill="#241F1B" stroke="#8FAF8B" stroke-width="1"/>
  <text x="130" y="147" text-anchor="middle" font-size="9" fill="#F0EDE8">self-reported labels</text>

  <rect x="45" y="160" width="170" height="26" rx="4" fill="#241F1B" stroke="#8FAF8B" stroke-width="1"/>
  <text x="130" y="177" text-anchor="middle" font-size="9" fill="#F0EDE8">protagonist gender exposure</text>

  <rect x="45" y="190" width="170" height="26" rx="4" fill="#241F1B" stroke="#8FAF8B" stroke-width="1"/>
  <text x="130" y="207" text-anchor="middle" font-size="9" fill="#F0EDE8">audience affinity, sub-genre</text>

  <!-- Feature store source -->
  <rect x="30" y="260" width="200" height="100" rx="8" fill="#1A1714" stroke="#C87533" stroke-width="1.5"/>
  <text x="130" y="285" text-anchor="middle" font-size="11" font-weight="600" fill="#C87533">Profile Feature Store</text>
  <text x="130" y="301" text-anchor="middle" font-size="9" fill="#9C9189">behavioral features only</text>

  <rect x="45" y="312" width="170" height="32" rx="5" fill="#241F1B" stroke="#C87533" stroke-width="1"/>
  <text x="130" y="328" text-anchor="middle" font-size="9" fill="#F0EDE8">9.5M adult profiles</text>
  <text x="130" y="340" text-anchor="middle" font-size="9" fill="#F0EDE8">scoring population</text>

  <!-- Training loop -->
  <line x1="230" y1="155" x2="280" y2="155" stroke="#C87533" stroke-width="2" marker-end="url(#gpArr)"/>

  <rect x="290" y="80" width="240" height="160" rx="10" fill="#241F1B" stroke="#C87533" stroke-width="2"/>
  <text x="410" y="108" text-anchor="middle" font-size="13" font-weight="700" fill="#F0EDE8">XGBoost Training</text>
  <text x="410" y="126" text-anchor="middle" font-size="9" fill="#D98F4E">train / validate / hold-out</text>

  <rect x="308" y="142" width="204" height="24" rx="4" fill="#2E2823" stroke="#C87533" stroke-width="1"/>
  <text x="410" y="158" text-anchor="middle" font-size="9" fill="#F0EDE8">hyperparameter sweep</text>

  <rect x="308" y="172" width="204" height="24" rx="4" fill="#2E2823" stroke="#C87533" stroke-width="1"/>
  <text x="410" y="188" text-anchor="middle" font-size="9" fill="#F0EDE8">precision / recall on hold-out</text>

  <rect x="308" y="202" width="204" height="24" rx="4" fill="#2E2823" stroke="#C87533" stroke-width="1"/>
  <text x="410" y="218" text-anchor="middle" font-size="9" fill="#F0EDE8">SHAP feature explanations</text>

  <!-- MLflow registry -->
  <line x1="410" y1="240" x2="410" y2="270" stroke="#C87533" stroke-width="2" marker-end="url(#gpArr)"/>

  <rect x="290" y="280" width="240" height="80" rx="10" fill="#241F1B" stroke="#8FAF8B" stroke-width="1.5"/>
  <text x="410" y="305" text-anchor="middle" font-size="12" font-weight="700" fill="#8FAF8B">MLflow Model Registry</text>
  <text x="410" y="322" text-anchor="middle" font-size="9" fill="#9C9189">Unity Catalog governed</text>
  <text x="410" y="340" text-anchor="middle" font-size="9" fill="#F0EDE8">versioned promotions: staging &#8594; prod</text>

  <!-- Scoring + output -->
  <line x1="530" y1="160" x2="565" y2="160" stroke="#C87533" stroke-width="2" marker-end="url(#gpArr)"/>
  <line x1="230" y1="320" x2="290" y2="320" stroke="#C87533" stroke-width="2" marker-end="url(#gpArr)"/>

  <rect x="575" y="100" width="190" height="140" rx="10" fill="#241F1B" stroke="#C87533" stroke-width="2"/>
  <text x="670" y="128" text-anchor="middle" font-size="12" font-weight="700" fill="#F0EDE8">Scoring Job</text>
  <text x="670" y="146" text-anchor="middle" font-size="9" fill="#D98F4E">monthly Databricks job</text>

  <rect x="592" y="162" width="156" height="26" rx="4" fill="#2E2823" stroke="#C87533" stroke-width="1"/>
  <text x="670" y="179" text-anchor="middle" font-size="9" fill="#F0EDE8">5.8M new predictions</text>

  <rect x="592" y="194" width="156" height="26" rx="4" fill="#2E2823" stroke="#C87533" stroke-width="1"/>
  <text x="670" y="211" text-anchor="middle" font-size="9" fill="#F0EDE8">confidence scores attached</text>

  <line x1="765" y1="170" x2="800" y2="170" stroke="#C87533" stroke-width="2" marker-end="url(#gpArr)"/>

  <!-- Output: separate feature surface -->
  <rect x="810" y="100" width="125" height="140" rx="10" fill="#241F1B" stroke="#C87533" stroke-width="2"/>
  <text x="872" y="128" text-anchor="middle" font-size="11" font-weight="700" fill="#F0EDE8">Inferred Features</text>
  <text x="872" y="146" text-anchor="middle" font-size="9" fill="#D98F4E">separate surface</text>
  <text x="872" y="170" text-anchor="middle" font-size="8" fill="#9C9189">distinct from</text>
  <text x="872" y="183" text-anchor="middle" font-size="8" fill="#9C9189">self-reported</text>
  <text x="872" y="205" text-anchor="middle" font-size="8" fill="#9C9189">usage guidance</text>
  <text x="872" y="218" text-anchor="middle" font-size="8" fill="#9C9189">documented</text>

  <!-- Consumers -->
  <line x1="872" y1="240" x2="872" y2="280" stroke="#C87533" stroke-width="1.5" marker-end="url(#gpArr)"/>

  <rect x="775" y="290" width="160" height="44" rx="8" fill="#241F1B" stroke="#C87533" stroke-width="1.5"/>
  <text x="855" y="310" text-anchor="middle" font-size="10" font-weight="600" fill="#F0EDE8">Analytics &amp; Targeting</text>
  <text x="855" y="324" text-anchor="middle" font-size="8" fill="#9C9189">opt-in consumers</text>

  <!-- Footer -->
  <text x="480" y="420" text-anchor="middle" font-size="10" fill="#9C9189">XGBoost + MLflow + Unity Catalog + Databricks Jobs</text>
</svg>
