<svg xmlns="http://www.w3.org/2000/svg" viewBox="0 0 860 400" font-family="Roboto, Arial, sans-serif">
  <defs>
    <marker id="arrow-up" markerWidth="10" markerHeight="7" refX="10" refY="3.5" orient="auto">
      <polygon points="0 0, 10 3.5, 0 7" fill="#0f9b8e"/>
    </marker>
  </defs>

  <rect width="860" height="400" rx="12" fill="#ffffff"/>
  <text x="430" y="35" text-anchor="middle" font-size="16" font-weight="700" fill="#1a1a2e">Semantic Layer Architecture</text>

  <!-- Gold Layer (bottom) -->
  <rect x="80" y="290" width="700" height="80" rx="8" fill="#0f9b8e" fill-opacity="0.1" stroke="#0f9b8e" stroke-width="1.5"/>
  <text x="430" y="315" text-anchor="middle" font-size="12" font-weight="600" fill="#0f9b8e">Gold Layer (Enterprise Data Model)</text>

  <rect x="100" y="330" width="120" height="28" rx="4" fill="#e6f7f5" stroke="#0f9b8e" stroke-width="1"/>
  <text x="160" y="349" text-anchor="middle" font-size="9" fill="#0a7a6f">fact_view</text>

  <rect x="235" y="330" width="120" height="28" rx="4" fill="#e6f7f5" stroke="#0f9b8e" stroke-width="1"/>
  <text x="295" y="349" text-anchor="middle" font-size="9" fill="#0a7a6f">fact_subscriptions</text>

  <rect x="370" y="330" width="120" height="28" rx="4" fill="#e6f7f5" stroke="#0f9b8e" stroke-width="1"/>
  <text x="430" y="349" text-anchor="middle" font-size="9" fill="#0a7a6f">daily_movements</text>

  <rect x="505" y="330" width="120" height="28" rx="4" fill="#e6f7f5" stroke="#0f9b8e" stroke-width="1"/>
  <text x="565" y="349" text-anchor="middle" font-size="9" fill="#0a7a6f">fact_ad_events</text>

  <rect x="640" y="330" width="120" height="28" rx="4" fill="#e6f7f5" stroke="#0f9b8e" stroke-width="1"/>
  <text x="700" y="349" text-anchor="middle" font-size="9" fill="#0a7a6f">dim_*</text>

  <!-- Arrow up -->
  <line x1="430" y1="290" x2="430" y2="258" stroke="#0f9b8e" stroke-width="2" marker-end="url(#arrow-up)"/>

  <!-- SSAS Tabular (center) -->
  <rect x="200" y="155" width="460" height="100" rx="10" fill="#1a1a2e" stroke="#0f9b8e" stroke-width="2"/>
  <text x="430" y="180" text-anchor="middle" font-size="14" font-weight="700" fill="#ffffff">SSAS Tabular Semantic Model</text>

  <rect x="220" y="195" width="100" height="28" rx="4" fill="#2a2a4e" stroke="#0f9b8e" stroke-width="1"/>
  <text x="270" y="213" text-anchor="middle" font-size="9" fill="#0f9b8e">DAX Measures</text>

  <rect x="335" y="195" width="110" height="28" rx="4" fill="#2a2a4e" stroke="#0f9b8e" stroke-width="1"/>
  <text x="390" y="213" text-anchor="middle" font-size="9" fill="#0f9b8e">KPI Definitions</text>

  <rect x="460" y="195" width="110" height="28" rx="4" fill="#2a2a4e" stroke="#0f9b8e" stroke-width="1"/>
  <text x="515" y="213" text-anchor="middle" font-size="9" fill="#0f9b8e">Time Intelligence</text>

  <rect x="220" y="228" width="100" height="20" rx="4" fill="none"/>
  <text x="430" y="243" text-anchor="middle" font-size="10" fill="#16c2b0">100+ governed KPIs in one layer</text>

  <!-- Arrows to consumers -->
  <line x1="310" y1="155" x2="210" y2="110" stroke="#0f9b8e" stroke-width="2" marker-end="url(#arrow-up)"/>
  <line x1="430" y1="155" x2="430" y2="110" stroke="#0f9b8e" stroke-width="2" marker-end="url(#arrow-up)"/>
  <line x1="550" y1="155" x2="650" y2="110" stroke="#0f9b8e" stroke-width="2" marker-end="url(#arrow-up)"/>

  <!-- Consumer boxes -->
  <rect x="130" y="60" width="160" height="48" rx="8" fill="#1a1a2e"/>
  <text x="210" y="82" text-anchor="middle" font-size="11" fill="#ffffff">Power BI Reports</text>
  <text x="210" y="98" text-anchor="middle" font-size="9" fill="#16c2b0">Live Connection</text>

  <rect x="350" y="60" width="160" height="48" rx="8" fill="#1a1a2e"/>
  <text x="430" y="82" text-anchor="middle" font-size="11" fill="#ffffff">Executive Dashboards</text>
  <text x="430" y="98" text-anchor="middle" font-size="9" fill="#16c2b0">Self-Service</text>

  <rect x="570" y="60" width="160" height="48" rx="8" fill="#1a1a2e"/>
  <text x="650" y="82" text-anchor="middle" font-size="11" fill="#ffffff">Ad-Hoc Analysis</text>
  <text x="650" y="98" text-anchor="middle" font-size="9" fill="#16c2b0">DAX Queries</text>

  <!-- Footer -->
  <text x="430" y="390" text-anchor="middle" font-size="10" fill="#999">SSAS + DAX + Power BI + Databricks</text>
</svg>