<?xml version="1.0" encoding="UTF-8"?>
<svg xmlns="http://www.w3.org/2000/svg" viewBox="0 0 960 430" font-family="Inter, system-ui, sans-serif">
  <defs>
    <marker id="arrow-s2" markerWidth="10" markerHeight="7" refX="10" refY="3.5" orient="auto">
      <polygon points="0 0, 10 3.5, 0 7" fill="#06B6D4"/>
    </marker>
  </defs>

  <rect width="960" height="430" rx="12" fill="#050B14"/>
  <text x="480" y="34" text-anchor="middle" font-size="16" font-weight="700" fill="#E2E8F0">Semantic Layer Technical Architecture</text>

  <rect x="30" y="82" width="180" height="300" rx="10" fill="#0A1220" stroke="#2A4561"/>
  <text x="120" y="106" text-anchor="middle" font-size="12" font-weight="700" fill="#E2E8F0">Governed Tables</text>
  <g fill="#122033" stroke="#2A4561">
    <rect x="48" y="126" width="144" height="26" rx="5"/>
    <rect x="48" y="160" width="144" height="26" rx="5"/>
    <rect x="48" y="194" width="144" height="26" rx="5"/>
    <rect x="48" y="228" width="144" height="26" rx="5"/>
    <rect x="48" y="262" width="144" height="26" rx="5"/>
    <rect x="48" y="296" width="144" height="26" rx="5"/>
    <rect x="48" y="330" width="144" height="26" rx="5"/>
  </g>
  <g fill="#E2E8F0" font-size="9" text-anchor="middle">
    <text x="120" y="143">fact_subscriptions</text>
    <text x="120" y="177">fact_engagement</text>
    <text x="120" y="211">fact_impressions</text>
    <text x="120" y="245">fact_inventory</text>
    <text x="120" y="279">dim_subscriber</text>
    <text x="120" y="313">dim_content</text>
    <text x="120" y="347">staging helpers</text>
  </g>

  <line x1="210" y1="222" x2="286" y2="222" stroke="#06B6D4" stroke-width="2.5" marker-end="url(#arrow-s2)"/>

  <rect x="286" y="100" width="190" height="245" rx="10" fill="rgba(6,182,212,0.06)" stroke="#06B6D4" stroke-width="1.5"/>
  <text x="381" y="124" text-anchor="middle" font-size="12" font-weight="700" fill="#06B6D4">Model Build Layer</text>
  <g fill="#122033" stroke="#06B6D4">
    <rect x="304" y="142" width="154" height="35" rx="6"/>
    <rect x="304" y="188" width="154" height="35" rx="6"/>
    <rect x="304" y="234" width="154" height="35" rx="6"/>
    <rect x="304" y="280" width="154" height="35" rx="6"/>
  </g>
  <g fill="#06B6D4" font-size="9" text-anchor="middle">
    <text x="381" y="164">Tabular Project Definition</text>
    <text x="381" y="210">DAX Measure Layer</text>
    <text x="381" y="256">Best Practice Validation</text>
    <text x="381" y="302">Deployment Artifact</text>
  </g>

  <line x1="476" y1="222" x2="552" y2="222" stroke="#06B6D4" stroke-width="2.5" marker-end="url(#arrow-s2)"/>

  <rect x="552" y="120" width="180" height="205" rx="10" fill="#0A1220" stroke="#2A4561"/>
  <text x="642" y="145" text-anchor="middle" font-size="12" font-weight="700" fill="#E2E8F0">Semantic Model</text>
  <g fill="#122033" stroke="#2A4561">
    <rect x="570" y="165" width="144" height="32" rx="6"/>
    <rect x="570" y="207" width="144" height="32" rx="6"/>
    <rect x="570" y="249" width="144" height="32" rx="6"/>
  </g>
  <g fill="#E2E8F0" font-size="9" text-anchor="middle">
    <text x="642" y="185">KPI Definitions</text>
    <text x="642" y="227">Role Security</text>
    <text x="642" y="269">Incremental Partitions</text>
  </g>

  <line x1="732" y1="222" x2="775" y2="222" stroke="#06B6D4" stroke-width="2.5" marker-end="url(#arrow-s2)"/>

  <rect x="775" y="96" width="155" height="255" rx="10" fill="#0A1220" stroke="#2A4561"/>
  <text x="852" y="118" text-anchor="middle" font-size="11" font-weight="700" fill="#E2E8F0">Consumers</text>
  <g fill="#122033" stroke="#2A4561">
    <rect x="787" y="138" width="131" height="42" rx="6"/>
    <rect x="787" y="191" width="131" height="42" rx="6"/>
    <rect x="787" y="244" width="131" height="42" rx="6"/>
  </g>
  <g fill="#E2E8F0" font-size="9" text-anchor="middle">
    <text x="852" y="161">Executive Dashboards</text>
    <text x="852" y="214">Operational Dashboards</text>
    <text x="852" y="267">Ad-hoc Analysis</text>
  </g>

  <text x="480" y="401" text-anchor="middle" font-size="10" fill="#94A3B8">Curated from a production runbook, generalized for public sharing</text>
</svg>
