<svg xmlns="http://www.w3.org/2000/svg" id="Layer_1" viewBox="0 0 546.39 116.41"><defs><style>      .st0 {        fill: #004f9e;      }      .st1 {        fill: #009ee2;      }    </style></defs><path class="st0" d="M202.53,44.37v22.21h-8.4l8.4-22.21ZM202.53,99.84h16.63V33.32h-30.52l-22.2,66.53h16.63l8.32-22.12h11.14v22.12ZM446.6,99.84v-44.32h-38.84l-5.57,11.06v22.21l5.57,11.06h38.84ZM418.82,88.79v-22.21h11.14v22.21h-11.14ZM244.11,99.84V33.32h-16.63v66.53h16.63ZM521.44,66.58v33.26h-16.63v-33.26h-8.32v33.26h-16.63v-44.32h61.04l5.49,11.06v33.26h-16.64v-33.26h-8.31ZM471.55,99.84v-44.32l-16.64-.08v44.4h16.64ZM471.55,44.37v-11.06h-16.64v11.06h16.64ZM266.32,77.65v-11.15h-16.63v11.15h16.63ZM402.19,55.52v11.06h-8.31v33.26h-16.63v-33.26h-8.32v33.26h-16.63v-33.26h-8.31v33.26h-38.84l-5.57-11.06v-22.21h-11.15v33.26h-16.63V33.32h44.41v11.06h-27.78v11.15h27.78v33.26h11.06v-33.26h25.03v-11.15h16.63v11.15h8.32v-11.15h16.63v11.15h8.31Z"></path><path class="st1" d="M49.98,83.19l-16.59-16.65-16.73,16.57L0,66.49,66.62,0l66.55,66.54-16.59,16.57-16.56-16.57-16.73,16.75,16.55,16.56-16.55,16.57-17-16.57-16.32,16.57-16.69-16.52,16.69-16.71M66.62,66.44l16.55-16.57-16.55-16.57-16.56,16.57,16.56,16.57M66.62,49.88"></path></svg>