<?xml version="1.0" encoding="UTF-8"?>
<svg id="Layer_1" xmlns="http://www.w3.org/2000/svg" xmlns:xlink="http://www.w3.org/1999/xlink" version="1.1" viewBox="0 0 145 35">
  <!-- Generator: Adobe Illustrator 30.1.0, SVG Export Plug-In . SVG Version: 2.1.1 Build 136)  -->
  <defs>
    <style>
      .st0, .st1 {
        fill-rule: evenodd;
      }

      .st0, .st2 {
        fill: #04bbf2;
      }

      .st3 {
        fill: url(#linear-gradient2);
      }

      .st4 {
        fill: url(#linear-gradient1);
      }

      .st1, .st5 {
        fill: #10385b;
      }

      .st6 {
        fill: url(#linear-gradient);
      }
    </style>
    <linearGradient id="linear-gradient" x1="104.6" y1="746.5" x2="109.8" y2="740.6" gradientTransform="translate(0 772.8) scale(1 -1)" gradientUnits="userSpaceOnUse">
      <stop offset="0" stop-color="#c8e7f7"/>
      <stop offset=".5" stop-color="#04bbf2"/>
      <stop offset="1" stop-color="#0074d9"/>
    </linearGradient>
    <linearGradient id="linear-gradient1" x1="140.5" y1="770.9" x2="140.3" y2="766.5" xlink:href="#linear-gradient"/>
    <linearGradient id="linear-gradient2" x1="136.5" y1="769.4" x2="135.9" y2="759.5" xlink:href="#linear-gradient"/>
  </defs>
  <path class="st2" d="M49.7,32.6V14.3h3.4c.5,0,.9.1,1.3.4.4.2.7.6,1,1l6.6,12h0v-10.8c0-.3,0-.7.2-1,.1-.3.3-.6.6-.8.2-.2.5-.4.8-.6.3-.1.7-.2,1-.2h1.3v18.3h-4.9l-7.4-13.4h0v13.4h-3.9Z"/>
  <path class="st5" d="M38.9,25h-9.3c.2,1.6.7,2.6,1.4,3.3.7.7,1.7,1.1,3,1.1h6.2v3.1h-7.3c-2.5,0-4.4-.8-5.6-2.3-1.3-1.6-1.9-3.8-1.9-6.8s.6-5.2,1.9-6.8c1.3-1.6,3.2-2.3,5.6-2.3h7.3v.5c0,.3,0,.7-.2,1-.1.3-.3.6-.6.8-.2.2-.5.4-.8.6-.3.1-.7.2-1,.2h-3.6c-.4,0-.9,0-1.3.1-.5,0-.9.3-1.3.6-.5.4-.8.8-1.1,1.4-.3.6-.5,1.3-.7,2.3h9.3c.3,0,.5.1.7.3.2.2.3.5.3.7v1.2c0,.3-.1.5-.3.7s-.5.3-.7.3Z"/>
  <path class="st5" d="M82,25h-9.3c.2,1.6.7,2.6,1.4,3.3.7.7,1.7,1.1,3,1.1h6.2v3.1h-7.3c-2.5,0-4.4-.8-5.6-2.3-1.3-1.6-1.9-3.8-1.9-6.8,0-3,.6-5.2,1.9-6.8,1.3-1.6,3.2-2.3,5.6-2.3h7.3v.5c0,.7-.3,1.3-.8,1.8s-1.1.8-1.8.8h-3.6c-.4,0-.9,0-1.3.1-.5,0-.9.3-1.3.6-.4.3-.8.7-1.1,1.4-.3.6-.5,1.3-.7,2.3h9.3c.3,0,.5.1.7.3.2.2.3.5.3.7v1.2c0,.3-.1.5-.3.7-.2.2-.5.3-.7.3Z"/>
  <path class="st2" d="M43.2,32.6V15.6c0-.3.1-.7.4-.9.2-.2.6-.4.9-.4h1.3c.3,0,.7.1.9.4.2.2.4.6.4.9v17h-3.9Z"/>
  <path class="st5" d="M91.3,15.5l3.2,5.1,3.2-5.1c.2-.4.6-.7.9-.9.4-.2.8-.3,1.3-.3h3.1l-6.6,9.1,6.6,9.1h-4.6l-3.9-6.3-3.9,6.3h-4.6l6.6-9.1-6.6-9.1h3.1c.4,0,.9.1,1.3.3.4.2.7.5.9.9Z"/>
  <path class="st5" d="M22.3,25.1c-.6-.8-1.4-1.3-2.3-1.7,1-.4,1.7-1,2.1-1.8.5-.8.7-1.8.7-2.8,0-.7-.1-1.4-.5-2-.3-.6-.7-1-1.2-1.4-.5-.4-1.1-.7-1.7-.9-.6-.2-1.3-.3-2-.3H4.1c-.4,0-.8.2-1.1.5-.3.3-.5.7-.5,1.1v1.4h13.8c.9,0,1.6.2,2,.6.4.4.6,1,.6,1.7,0,.7-.2,1.3-.6,1.7-.4.4-1.1.6-2,.6h-6v3h6c.9,0,1.6.2,2,.6.4.4.6,1,.6,1.7,0,.7-.2,1.3-.6,1.7-.4.4-1.1.6-2,.6h-6v3h7.2c.7,0,1.4,0,2.1-.2.6-.1,1.3-.4,1.8-.8.5-.4,1-.9,1.3-1.5.3-.6.5-1.4.5-2.3s-.3-1.9-.8-2.7Z"/>
  <path class="st0" d="M5.3,18.2h-2.8v3h2.8v-3ZM6.2,21.2v-3h3.2v3h-3.2Z"/>
  <path class="st0" d="M5.3,21.9h-2.8v3h2.8v-3ZM6.2,24.9v-3h3.2v3h-3.2Z"/>
  <path class="st0" d="M5.3,25.7h-2.8v3h2.8v-3ZM6.2,28.7v-3h3.2v3h-3.2Z"/>
  <path class="st1" d="M5.3,29.5h-2.8v3h2.8v-3ZM6.2,32.6v-3h3.2v3h-3.2Z"/>
  <circle class="st6" cx="107.5" cy="29.7" r="2.7"/>
  <path class="st5" d="M134.5,32.4V15.6h3.2v16.7h-3.2Z"/>
  <path class="st5" d="M127.1,15.6v2.3c-.6-.8-1.3-1.4-2.2-1.9-1-.5-2.1-.8-3.4-.8s-3,.4-4.2,1.2c-1.2.8-2.2,1.8-2.9,3.1-.7,1.3-1.1,2.8-1.1,4.4s.4,3.1,1.1,4.4c.7,1.3,1.7,2.4,3,3.1,1.2.8,2.6,1.1,4.2,1.1s2.4-.3,3.4-.8c.9-.5,1.6-1.1,2.2-1.9v2.3h3.2V15.6h-3.2ZM125.8,28.2c-1,1.1-2.2,1.6-3.8,1.6s-2-.2-2.8-.7c-.8-.5-1.5-1.2-1.9-2-.4-.9-.7-1.9-.7-3s.2-2.1.7-2.9c.5-.9,1.1-1.6,1.9-2,.8-.5,1.8-.7,2.8-.7s2,.2,2.8.7c.8.5,1.4,1.1,1.8,2,.4.8.7,1.8.7,3,0,1.7-.5,3-1.4,4.1Z"/>
  <path class="st4" d="M140.4,2.3c.2,1.2.6,1.7,2.1,2.1-1.6.3-2,.8-2.1,2.1-.3-1.3-.7-1.8-2.1-2.1,1.5-.4,1.6-.8,2.1-2.1Z"/>
  <path class="st3" d="M136.1,4.1c.4,2.8,1.3,4,4.9,4.9-3.6.8-4.5,1.9-4.9,4.9-.6-2.9-1.6-4.1-4.9-4.9,3.5-.9,3.7-1.8,4.9-4.9Z"/>
</svg>