<?xml version="1.0" encoding="UTF-8"?>
<svg xmlns="http://www.w3.org/2000/svg" viewBox="0 0 960 440" font-family="Inter, system-ui, sans-serif">
      <defs>
        <marker id="gpArr" markerWidth="10" markerHeight="7" refX="10" refY="3.5" orient="auto">
          <polygon points="0 0, 10 3.5, 0 7" fill="#06B6D4"/>
        </marker>
      </defs>
    
      <rect width="960" height="440" rx="12" fill="#050B14"/>
      <text x="480" y="35" text-anchor="middle" font-size="16" font-weight="700" fill="#E2E8F0">Behavior-Based Attribute Inference</text>
    
      <!-- Training data -->
      <rect x="30" y="75" width="200" height="160" rx="8" stroke-width="1.5" fill="#0A1220" stroke="#2A4561"/>
      <text x="130" y="100" text-anchor="middle" font-size="11" font-weight="600" fill="#94A3B8">Labelled Training Set</text>
      <text x="130" y="116" text-anchor="middle" font-size="9" fill="#94A3B8">single-adult-profile accounts</text>
    
      <rect x="45" y="130" width="170" height="26" rx="4" stroke-width="1" fill="#122033" stroke="#2A4561"/>
      <text x="130" y="147" text-anchor="middle" font-size="9" fill="#E2E8F0">self-reported labels</text>
    
      <rect x="45" y="160" width="170" height="26" rx="4" stroke-width="1" fill="#122033" stroke="#2A4561"/>
      <text x="130" y="177" text-anchor="middle" font-size="9" fill="#E2E8F0">protagonist gender exposure</text>
    
      <rect x="45" y="190" width="170" height="26" rx="4" stroke-width="1" fill="#122033" stroke="#2A4561"/>
      <text x="130" y="207" text-anchor="middle" font-size="9" fill="#E2E8F0">audience affinity, sub-genre</text>
    
      <!-- Feature store source -->
      <rect x="30" y="260" width="200" height="100" rx="8" stroke-width="1.5" fill="#0A1220" stroke="#06B6D4"/>
      <text x="130" y="285" text-anchor="middle" font-size="11" font-weight="600" fill="#06B6D4">Profile Feature Store</text>
      <text x="130" y="301" text-anchor="middle" font-size="9" fill="#94A3B8">behavioral features only</text>
    
      <rect x="45" y="312" width="170" height="32" rx="5" stroke-width="1" fill="#122033" stroke="#06B6D4"/>
      <text x="130" y="328" text-anchor="middle" font-size="9" fill="#E2E8F0">9.5M adult profiles</text>
      <text x="130" y="340" text-anchor="middle" font-size="9" fill="#E2E8F0">scoring population</text>
    
      <!-- Training loop -->
      <line x1="230" y1="155" x2="280" y2="155" stroke-width="2" marker-end="url(#gpArr)" stroke="#06B6D4"/>
    
      <rect x="290" y="80" width="240" height="160" rx="10" stroke-width="2" fill="#122033" stroke="#06B6D4"/>
      <text x="410" y="108" text-anchor="middle" font-size="13" font-weight="700" fill="#E2E8F0">XGBoost Training</text>
      <text x="410" y="126" text-anchor="middle" font-size="9" fill="#06B6D4">train / validate / hold-out</text>
    
      <rect x="308" y="142" width="204" height="24" rx="4" stroke-width="1" fill="#122033" stroke="#06B6D4"/>
      <text x="410" y="158" text-anchor="middle" font-size="9" fill="#E2E8F0">hyperparameter sweep</text>
    
      <rect x="308" y="172" width="204" height="24" rx="4" stroke-width="1" fill="#122033" stroke="#06B6D4"/>
      <text x="410" y="188" text-anchor="middle" font-size="9" fill="#E2E8F0">precision / recall on hold-out</text>
    
      <rect x="308" y="202" width="204" height="24" rx="4" stroke-width="1" fill="#122033" stroke="#06B6D4"/>
      <text x="410" y="218" text-anchor="middle" font-size="9" fill="#E2E8F0">SHAP feature explanations</text>
    
      <!-- MLflow registry -->
      <line x1="410" y1="240" x2="410" y2="270" stroke-width="2" marker-end="url(#gpArr)" stroke="#06B6D4"/>
    
      <rect x="290" y="280" width="240" height="80" rx="10" stroke-width="1.5" fill="#122033" stroke="#2A4561"/>
      <text x="410" y="305" text-anchor="middle" font-size="12" font-weight="700" fill="#94A3B8">MLflow Model Registry</text>
      <text x="410" y="322" text-anchor="middle" font-size="9" fill="#94A3B8">Unity Catalog governed</text>
      <text x="410" y="340" text-anchor="middle" font-size="9" fill="#E2E8F0">versioned promotions: staging &#8594; prod</text>
    
      <!-- Scoring + output -->
      <line x1="530" y1="160" x2="565" y2="160" stroke-width="2" marker-end="url(#gpArr)" stroke="#06B6D4"/>
      <line x1="230" y1="320" x2="290" y2="320" stroke-width="2" marker-end="url(#gpArr)" stroke="#06B6D4"/>
    
      <rect x="575" y="100" width="190" height="140" rx="10" stroke-width="2" fill="#122033" stroke="#06B6D4"/>
      <text x="670" y="128" text-anchor="middle" font-size="12" font-weight="700" fill="#E2E8F0">Scoring Job</text>
      <text x="670" y="146" text-anchor="middle" font-size="9" fill="#06B6D4">monthly Databricks job</text>
    
      <rect x="592" y="162" width="156" height="26" rx="4" stroke-width="1" fill="#122033" stroke="#06B6D4"/>
      <text x="670" y="179" text-anchor="middle" font-size="9" fill="#E2E8F0">5.8M new predictions</text>
    
      <rect x="592" y="194" width="156" height="26" rx="4" stroke-width="1" fill="#122033" stroke="#06B6D4"/>
      <text x="670" y="211" text-anchor="middle" font-size="9" fill="#E2E8F0">confidence scores attached</text>
    
      <line x1="765" y1="170" x2="800" y2="170" stroke-width="2" marker-end="url(#gpArr)" stroke="#06B6D4"/>
    
      <!-- Output: separate feature surface -->
      <rect x="810" y="100" width="125" height="140" rx="10" stroke-width="2" fill="#122033" stroke="#06B6D4"/>
      <text x="872" y="128" text-anchor="middle" font-size="11" font-weight="700" fill="#E2E8F0">Inferred Features</text>
      <text x="872" y="146" text-anchor="middle" font-size="9" fill="#06B6D4">separate surface</text>
      <text x="872" y="170" text-anchor="middle" font-size="8" fill="#94A3B8">distinct from</text>
      <text x="872" y="183" text-anchor="middle" font-size="8" fill="#94A3B8">self-reported</text>
      <text x="872" y="205" text-anchor="middle" font-size="8" fill="#94A3B8">usage guidance</text>
      <text x="872" y="218" text-anchor="middle" font-size="8" fill="#94A3B8">documented</text>
    
      <!-- Consumers -->
      <line x1="872" y1="240" x2="872" y2="280" stroke-width="1.5" marker-end="url(#gpArr)" stroke="#06B6D4"/>
    
      <rect x="775" y="290" width="160" height="44" rx="8" stroke-width="1.5" fill="#122033" stroke="#06B6D4"/>
      <text x="855" y="310" text-anchor="middle" font-size="10" font-weight="600" fill="#E2E8F0">Analytics &amp; Targeting</text>
      <text x="855" y="324" text-anchor="middle" font-size="8" fill="#94A3B8">opt-in consumers</text>
    
      <!-- Footer -->
      <text x="480" y="420" text-anchor="middle" font-size="10" fill="#94A3B8">XGBoost + MLflow + Unity Catalog + Databricks Jobs</text>
    </svg>