<?xml version="1.0" encoding="UTF-8"?>
<svg xmlns="http://www.w3.org/2000/svg" viewBox="0 0 960 440" font-family="Inter, system-ui, sans-serif">
      <defs>
        <marker id="clArr" markerWidth="10" markerHeight="7" refX="10" refY="3.5" orient="auto">
          <polygon points="0 0, 10 3.5, 0 7" fill="#06B6D4"/>
        </marker>
      </defs>
    
      <rect width="960" height="440" rx="12" fill="#050B14"/>
      <text x="480" y="35" text-anchor="middle" font-size="16" font-weight="700" fill="#E2E8F0">Viewing Behavior Clustering</text>
    
      <!-- Input 1: profile features -->
      <rect x="30" y="80" width="200" height="100" rx="8" stroke-width="1.5" fill="#0A1220" stroke="#06B6D4"/>
      <text x="130" y="105" text-anchor="middle" font-size="11" font-weight="600" fill="#06B6D4">Behavior Matrix</text>
      <text x="130" y="121" text-anchor="middle" font-size="9" fill="#94A3B8">profile_features</text>
      <rect x="45" y="135" width="170" height="32" rx="5" stroke-width="1" fill="#122033" stroke="#06B6D4"/>
      <text x="130" y="151" text-anchor="middle" font-size="9" fill="#E2E8F0">hours by mood</text>
      <text x="130" y="163" text-anchor="middle" font-size="9" fill="#E2E8F0">sub-genre, dialect</text>
    
      <!-- Input 2: semantic embeddings -->
      <rect x="30" y="220" width="200" height="100" rx="8" stroke-width="1.5" fill="#0A1220" stroke="#2A4561"/>
      <text x="130" y="245" text-anchor="middle" font-size="11" font-weight="600" fill="#94A3B8">Content Embeddings</text>
      <text x="130" y="261" text-anchor="middle" font-size="9" fill="#94A3B8">title synopses</text>
      <rect x="45" y="275" width="170" height="32" rx="5" stroke-width="1" fill="#122033" stroke="#2A4561"/>
      <text x="130" y="291" text-anchor="middle" font-size="9" fill="#E2E8F0">sentence-transformer</text>
      <text x="130" y="303" text-anchor="middle" font-size="9" fill="#E2E8F0">vector space</text>
    
      <!-- Arrows converging into model -->
      <line x1="230" y1="130" x2="290" y2="180" stroke-width="2" marker-end="url(#clArr)" stroke="#06B6D4"/>
      <line x1="230" y1="270" x2="290" y2="220" stroke-width="2" marker-end="url(#clArr)" stroke="#2A4561"/>
    
      <!-- K-means model -->
      <rect x="300" y="140" width="220" height="120" rx="10" stroke-width="2" fill="#122033" stroke="#06B6D4"/>
      <text x="410" y="168" text-anchor="middle" font-size="13" font-weight="700" fill="#E2E8F0">K-means Clustering</text>
      <text x="410" y="186" text-anchor="middle" font-size="9" fill="#06B6D4">Spark ML on Databricks</text>
    
      <rect x="318" y="200" width="184" height="22" rx="4" stroke-width="1" fill="#122033" stroke="#06B6D4"/>
      <text x="410" y="215" text-anchor="middle" font-size="9" fill="#E2E8F0">stability check across runs</text>
    
      <rect x="318" y="228" width="184" height="22" rx="4" stroke-width="1" fill="#122033" stroke="#06B6D4"/>
      <text x="410" y="243" text-anchor="middle" font-size="9" fill="#E2E8F0">business-friendly labelling</text>
    
      <line x1="520" y1="200" x2="565" y2="200" stroke-width="2" marker-end="url(#clArr)" stroke="#06B6D4"/>
    
      <!-- Behavioral segments output -->
      <rect x="575" y="120" width="220" height="160" rx="10" stroke-width="2" fill="#122033" stroke="#06B6D4"/>
      <text x="685" y="148" text-anchor="middle" font-size="13" font-weight="700" fill="#E2E8F0">Behavioral Segments</text>
      <text x="685" y="166" text-anchor="middle" font-size="9" fill="#06B6D4">roughly a dozen, labelled and governed</text>

      <g font-size="9" fill="#E2E8F0">
        <rect x="590" y="178" width="92" height="20" rx="4" stroke-width="1" fill="#122033" stroke="#06B6D4"/>
        <text x="636" y="192" text-anchor="middle">Drama Loyalists</text>
        <rect x="688" y="178" width="92" height="20" rx="4" stroke-width="1" fill="#122033" stroke="#06B6D4"/>
        <text x="734" y="192" text-anchor="middle">Light Browsers</text>
        <rect x="590" y="203" width="92" height="20" rx="4" stroke-width="1" fill="#122033" stroke="#06B6D4"/>
        <text x="636" y="217" text-anchor="middle">Binge Watchers</text>
        <rect x="688" y="203" width="92" height="20" rx="4" stroke-width="1" fill="#122033" stroke="#06B6D4"/>
        <text x="734" y="217" text-anchor="middle">Sports-First</text>
        <rect x="590" y="228" width="92" height="20" rx="4" stroke-width="1" fill="#122033" stroke="#06B6D4"/>
        <text x="636" y="242" text-anchor="middle">Family Daypart</text>
        <rect x="688" y="228" width="92" height="20" rx="4" stroke-width="1" fill="#122033" stroke="#06B6D4"/>
        <text x="734" y="242" text-anchor="middle">+ more</text>
      </g>
      <text x="685" y="270" text-anchor="middle" font-size="8" fill="#94A3B8">written back to Semantic Layer</text>
    
      <!-- Consumers -->
      <line x1="685" y1="280" x2="685" y2="320" stroke-width="2" marker-end="url(#clArr)" stroke="#06B6D4"/>
    
      <rect x="540" y="328" width="140" height="56" rx="8" stroke-width="1.5" fill="#122033" stroke="#06B6D4"/>
      <text x="610" y="350" text-anchor="middle" font-size="11" font-weight="600" fill="#E2E8F0">CRM</text>
      <text x="610" y="367" text-anchor="middle" font-size="9" fill="#94A3B8">cluster-aware audiences</text>
    
      <rect x="700" y="328" width="160" height="56" rx="8" stroke-width="1.5" fill="#122033" stroke="#06B6D4"/>
      <text x="780" y="350" text-anchor="middle" font-size="11" font-weight="600" fill="#E2E8F0">Power BI</text>
      <text x="780" y="367" text-anchor="middle" font-size="9" fill="#94A3B8">content strategy dashboards</text>
    
      <line x1="685" y1="295" x2="610" y2="328" stroke-width="1.5" marker-end="url(#clArr)" stroke="#06B6D4"/>
      <line x1="685" y1="295" x2="780" y2="328" stroke-width="1.5" marker-end="url(#clArr)" stroke="#06B6D4"/>
    
      <!-- Footer -->
      <text x="480" y="420" text-anchor="middle" font-size="10" fill="#94A3B8">Spark ML + Sentence Transformers + Delta Lake</text>
    </svg>