<?xml version="1.0" encoding="UTF-8"?>
<svg xmlns="http://www.w3.org/2000/svg" viewBox="0 0 860 400" font-family="Inter, system-ui, sans-serif">
      <defs>
        <marker id="arrow-up" markerWidth="10" markerHeight="7" refX="10" refY="3.5" orient="auto">
          <polygon points="0 0, 10 3.5, 0 7" fill="#06B6D4"/>
        </marker>
      </defs>
    
      <rect width="860" height="400" rx="12" fill="#050B14"/>
      <text x="430" y="35" text-anchor="middle" font-size="16" font-weight="700" fill="#E2E8F0">Semantic Layer Architecture</text>
    
      <!-- Gold Layer (bottom) -->
      <rect x="80" y="290" width="700" height="80" rx="8" fill="rgba(6,182,212,0.06)" stroke="#06B6D4" stroke-width="1.5"/>
      <text x="430" y="315" text-anchor="middle" font-size="12" font-weight="600" fill="#06B6D4">Gold Layer (Enterprise Data Model)</text>
    
      <rect x="100" y="330" width="120" height="28" rx="4" stroke-width="1" fill="#122033" stroke="#06B6D4"/>
      <text x="160" y="349" text-anchor="middle" font-size="9" fill="#06B6D4">fact_view</text>
    
      <rect x="235" y="330" width="120" height="28" rx="4" stroke-width="1" fill="#122033" stroke="#06B6D4"/>
      <text x="295" y="349" text-anchor="middle" font-size="9" fill="#06B6D4">fact_subscriptions</text>
    
      <rect x="370" y="330" width="120" height="28" rx="4" stroke-width="1" fill="#122033" stroke="#06B6D4"/>
      <text x="430" y="349" text-anchor="middle" font-size="9" fill="#06B6D4">daily_movements</text>
    
      <rect x="505" y="330" width="120" height="28" rx="4" stroke-width="1" fill="#122033" stroke="#06B6D4"/>
      <text x="565" y="349" text-anchor="middle" font-size="9" fill="#06B6D4">fact_ad_events</text>
    
      <rect x="640" y="330" width="120" height="28" rx="4" stroke-width="1" fill="#122033" stroke="#06B6D4"/>
      <text x="700" y="349" text-anchor="middle" font-size="9" fill="#06B6D4">dim_*</text>
    
      <!-- Arrow up -->
      <line x1="430" y1="290" x2="430" y2="258" stroke-width="2" marker-end="url(#arrow-up)" stroke="#06B6D4"/>
    
      <!-- SSAS Tabular (center) -->
      <rect x="200" y="155" width="460" height="100" rx="10" stroke-width="2" fill="#122033" stroke="#06B6D4"/>
      <text x="430" y="180" text-anchor="middle" font-size="14" font-weight="700" fill="#E2E8F0">SSAS Tabular Semantic Model</text>
    
      <rect x="220" y="195" width="100" height="28" rx="4" stroke-width="1" fill="#122033" stroke="#06B6D4"/>
      <text x="270" y="213" text-anchor="middle" font-size="9" fill="#06B6D4">DAX Measures</text>
    
      <rect x="335" y="195" width="110" height="28" rx="4" stroke-width="1" fill="#122033" stroke="#06B6D4"/>
      <text x="390" y="213" text-anchor="middle" font-size="9" fill="#06B6D4">KPI Definitions</text>
    
      <rect x="460" y="195" width="110" height="28" rx="4" stroke-width="1" fill="#122033" stroke="#06B6D4"/>
      <text x="515" y="213" text-anchor="middle" font-size="9" fill="#06B6D4">Time Intelligence</text>
    
      <rect x="220" y="228" width="100" height="20" rx="4" fill="none"/>
      <text x="430" y="243" text-anchor="middle" font-size="10" fill="#06B6D4">100+ governed KPIs in one layer</text>
    
      <!-- Arrows to consumers -->
      <line x1="310" y1="155" x2="210" y2="110" stroke-width="2" marker-end="url(#arrow-up)" stroke="#06B6D4"/>
      <line x1="430" y1="155" x2="430" y2="110" stroke-width="2" marker-end="url(#arrow-up)" stroke="#06B6D4"/>
      <line x1="550" y1="155" x2="650" y2="110" stroke-width="2" marker-end="url(#arrow-up)" stroke="#06B6D4"/>
    
      <!-- Consumer boxes -->
      <rect x="130" y="60" width="160" height="48" rx="8" fill="#122033"/>
      <text x="210" y="82" text-anchor="middle" font-size="11" fill="#E2E8F0">Power BI Reports</text>
      <text x="210" y="98" text-anchor="middle" font-size="9" fill="#06B6D4">Live Connection</text>
    
      <rect x="350" y="60" width="160" height="48" rx="8" fill="#122033"/>
      <text x="430" y="82" text-anchor="middle" font-size="11" fill="#E2E8F0">Executive Dashboards</text>
      <text x="430" y="98" text-anchor="middle" font-size="9" fill="#06B6D4">Self-Service</text>
    
      <rect x="570" y="60" width="160" height="48" rx="8" fill="#122033"/>
      <text x="650" y="82" text-anchor="middle" font-size="11" fill="#E2E8F0">Ad-Hoc Analysis</text>
      <text x="650" y="98" text-anchor="middle" font-size="9" fill="#06B6D4">DAX Queries</text>
    
      <!-- Footer -->
      <text x="430" y="390" text-anchor="middle" font-size="10" fill="#94A3B8">SSAS + DAX + Power BI + Databricks</text>
    </svg>